<svg width="28" height="28" viewBox="0 0 28 28" fill="none" xmlns="http://www.w3.org/2000/svg">
<g opacity="0.85">
<path d="M13.9988 2.3252C7.56582 2.32636 2.33215 7.56003 2.33215 13.993C2.33215 20.426 7.56582 25.6597 14 25.6597C20.4318 25.6597 25.6655 20.426 25.6667 13.993C25.6667 7.56003 20.433 2.32636 13.9988 2.3252ZM14 23.3264C8.85265 23.3264 4.66549 19.1392 4.66549 13.993C4.66549 8.84686 8.85265 4.6597 13.9988 4.65853C19.1462 4.6597 23.3333 8.84686 23.3333 13.993C23.3322 19.1392 19.145 23.3264 14 23.3264Z" fill="white"/>
<path d="M14 12.8263H9.33331V15.1596H14V18.6666L18.6725 13.9941L14 9.32275V12.8263Z" fill="white"/>
</g>
</svg>
