<svg width="60" height="60" viewBox="0 0 60 60" fill="none" xmlns="http://www.w3.org/2000/svg">
<g clip-path="url(#clip0_1_612)">
<path d="M21.6867 31.7614L16.1444 24.5438L24.8621 21.9687L30.0001 14.4568L35.138 21.9687L43.8557 24.5438L38.3135 31.7614L38.5632 40.8649L30.0001 37.8137L21.4369 40.8649L21.6867 31.7614Z" fill="#EFF2FC"/>
<path d="M56.5845 34.4992L59.9216 25.8459C60.0607 25.4854 60.0131 25.0797 59.7946 24.7612C59.5761 24.4427 59.2145 24.2524 58.8283 24.2524H53.2019C53.8216 23.418 53.9997 22.335 53.6777 21.3442C53.3506 20.3382 52.5502 19.5589 51.5368 19.2595L39.6503 15.7486L32.6445 5.50568C32.0466 4.63169 31.0581 4.10974 30.0002 4.10974C28.9422 4.10974 27.9536 4.63158 27.3558 5.50568L20.35 15.7486L8.46357 19.2595C7.45025 19.5589 6.64974 20.3382 6.32267 21.3442C6.00064 22.335 6.17876 23.4181 6.79833 24.2524H1.17193C0.785677 24.2524 0.424154 24.4428 0.205599 24.7612C-0.0128382 25.0797 -0.0605335 25.4854 0.0785681 25.8459L3.41572 34.4992L0.0785681 43.1525C-0.0605335 43.513 -0.0128382 43.9187 0.205599 44.2372C0.424154 44.5557 0.785677 44.746 1.17193 44.746H14.0958L14.0464 46.5499C14.0173 47.6096 14.5117 48.6138 15.3688 49.2361C16.2242 49.8572 17.3292 50.0161 18.3249 49.6615L25.6625 47.047L23.3438 53.5476H20.6937C20.0466 53.5476 19.5218 54.0723 19.5218 54.7195C19.5218 55.3667 20.0466 55.8914 20.6937 55.8914H39.3064C39.9535 55.8914 40.4782 55.3667 40.4782 54.7195C40.4782 54.0723 39.9535 53.5476 39.3064 53.5476H36.6564L34.339 47.0475L41.6753 49.6615C42.0252 49.7862 42.3886 49.8473 42.7499 49.8473C43.4167 49.8473 44.0765 49.6388 44.6314 49.2361C45.4885 48.6138 45.9829 47.6096 45.9538 46.5499L45.9044 44.746H58.8282C59.2144 44.746 59.5759 44.5556 59.7945 44.2372C60.0129 43.9187 60.0606 43.513 59.9215 43.1525L56.5845 34.4992ZM54.5245 33.3273H46.234L51.4027 26.5961H57.1204L54.5245 33.3273ZM8.59751 26.5961L13.7662 33.3273H5.47576L2.87994 26.5961H8.59751ZM2.87982 42.4023L5.47564 35.6712H14.3447L14.1601 42.4023H2.87982ZM34.1682 53.5476H25.832L28.5131 46.0312L30 45.5014L31.4887 46.0318L34.1682 53.5476ZM43.2544 47.3395C43.1441 47.4196 42.8467 47.5906 42.462 47.4538L30.3934 43.1536C30.2663 43.1082 30.1332 43.0856 30.0002 43.0856C29.867 43.0856 29.734 43.1082 29.6069 43.1536L17.5383 47.4538C17.1538 47.5908 16.8561 47.4196 16.7459 47.3395C16.6349 47.2589 16.3779 47.027 16.3893 46.6142L16.7415 33.7844C16.7488 33.5154 16.6634 33.252 16.4996 33.0385L8.68845 22.8662C8.4372 22.5391 8.50904 22.1996 8.55157 22.0688C8.59388 21.9386 8.73474 21.6233 9.12743 21.5073L21.4137 17.8782C21.6724 17.8018 21.8968 17.6386 22.049 17.4159L29.2902 6.82884C29.522 6.49005 29.8639 6.45349 30.0002 6.45349C30.1365 6.45349 30.4783 6.49005 30.7101 6.82884L37.9513 17.4159C38.1036 17.6385 38.328 17.8018 38.5866 17.8782L50.8729 21.5073C51.2656 21.6233 51.4065 21.9386 51.4488 22.0688C51.4913 22.1996 51.5631 22.5392 51.3119 22.8663L43.501 33.0385C43.3372 33.252 43.2516 33.5154 43.2591 33.7844L43.6113 46.6142C43.6223 47.027 43.3654 47.2589 43.2544 47.3395ZM45.84 42.4023L45.6554 35.6712H54.5245L57.1203 42.4023H45.84Z" fill="#B4B7C9"/>
<path d="M32.0576 26.6613C32.0576 26.014 31.5329 25.4894 30.8857 25.4894H29.1147C28.4676 25.4894 27.9428 26.014 27.9428 26.6613C27.9428 27.2097 28.3196 27.67 28.8284 27.7979V30.4367C28.3197 30.5644 27.9428 31.0248 27.9428 31.5733C27.9428 32.2205 28.4676 32.7452 29.1147 32.7452H30.8857C31.5329 32.7452 32.0576 32.2205 32.0576 31.5733C32.0576 31.0248 31.6809 30.5645 31.172 30.4367V27.7979C31.6809 27.67 32.0576 27.2097 32.0576 26.6613Z" fill="#9397AD"/>
</g>
<defs>
<clipPath id="clip0_1_612">
<rect width="60" height="60" fill="white"/>
</clipPath>
</defs>
</svg>
