<svg width="60" height="60" viewBox="0 0 60 60" fill="none" xmlns="http://www.w3.org/2000/svg">
<g clip-path="url(#clip0_1_596)">
<path d="M52.3926 35.2931C53.0273 35.4736 53.8245 35.6329 54.6611 35.6329C55.5122 35.6329 56.4041 35.468 57.207 34.9927C59.6818 33.5279 59.9727 29.9084 59.9977 29.5006C60.0272 29.0211 59.7609 28.5723 59.3261 28.368C58.956 28.1942 55.6386 26.7125 53.1648 28.1769C52.9131 28.3258 52.684 28.4972 52.4754 28.6851C52.2357 28.3685 51.8411 28.1813 51.4173 28.2261C50.7737 28.2939 50.3068 28.8706 50.3748 29.5143C50.5705 31.3715 50.4576 33.2456 50.0392 35.0845C48.4158 42.22 42.4322 47.5204 35.1499 48.2737C34.5061 48.3403 34.0383 48.9161 34.1048 49.56C34.1672 50.1628 34.676 50.6114 35.2691 50.6114C35.3094 50.6114 35.3502 50.6093 35.3911 50.605C38.0476 50.3302 40.5521 49.5234 42.7898 48.2863C43.3406 49.6653 44.4778 51.7566 46.4946 52.5177C47.0702 52.7349 47.6636 52.8234 48.2486 52.8234C50.7608 52.8234 53.1178 51.1913 53.2391 51.106C53.6324 50.8296 53.8169 50.3408 53.7045 49.8733C53.6618 49.6957 52.6229 45.5082 49.5754 44.3584C49.0677 44.1668 48.5459 44.0752 48.0283 44.0564C48.301 43.7438 48.5639 43.4224 48.8164 43.0923C49.7499 43.7345 51.345 44.6172 53.0594 44.6172C53.4443 44.6172 53.8352 44.5727 54.2258 44.4711C57.1749 43.7038 58.5368 40.0905 58.6823 39.6811C58.8433 39.2281 58.7115 38.7229 58.3497 38.4065C58.0227 38.1205 55.0721 35.6361 52.1268 36.3966C52.198 36.135 52.264 35.8708 52.3245 35.6046C52.3481 35.5007 52.3707 35.3969 52.3926 35.2931ZM56.1319 39.6649C55.6476 40.6073 54.7581 41.9107 53.6354 42.2028C52.5075 42.4959 51.1037 41.799 50.2127 41.2046C50.6969 40.2622 51.5865 38.9588 52.7092 38.6667C53.8367 38.3735 55.2409 39.0704 56.1319 39.6649ZM54.3586 30.1937C55.2444 29.6694 56.6062 29.9043 57.5388 30.193C57.3445 31.149 56.8974 32.4522 56.0131 32.9757C55.1273 33.5002 53.7657 33.2652 52.8329 32.9764C53.0272 32.0205 53.4742 30.7172 54.3586 30.1937ZM51.1711 49.6209C50.151 50.1636 48.5272 50.7797 47.3218 50.3247C46.1163 49.8698 45.305 48.3348 44.8986 47.255C45.9187 46.7123 47.5424 46.0964 48.7479 46.5512C49.9534 47.0061 50.7648 48.5411 51.1711 49.6209Z" fill="#B4B7C9"/>
<path d="M24.8501 48.2737C17.5678 47.5204 11.5842 42.22 9.96081 35.0844C9.54233 33.2455 9.42948 31.3714 9.62518 29.5142C9.69304 28.8705 9.22628 28.2937 8.58268 28.226C8.15905 28.1817 7.76436 28.3686 7.52472 28.6851C7.31612 28.4972 7.08702 28.3258 6.8353 28.1769C4.36147 26.7125 1.04401 28.1942 0.673934 28.368C0.239169 28.5722 -0.0270814 29.0211 0.00233266 29.5006C0.0274108 29.9084 0.31827 33.5279 2.79304 34.9927C3.59612 35.4682 4.48768 35.6329 5.33893 35.6329C6.17554 35.6329 6.97276 35.4736 7.60745 35.2931C7.62936 35.3969 7.65198 35.5007 7.67565 35.6045C7.73624 35.8708 7.80222 36.1349 7.87335 36.3966C4.92843 35.6362 1.97753 38.1205 1.65046 38.4065C1.2887 38.7231 1.15698 39.2282 1.31788 39.6811C1.46343 40.0905 2.82538 43.7038 5.7744 44.4711C6.16522 44.5728 6.55581 44.6172 6.94077 44.6172C8.65499 44.6172 10.2501 43.7345 11.1838 43.0923C11.4364 43.4224 11.6993 43.744 11.972 44.0565C11.4544 44.0754 10.9326 44.1668 10.4248 44.3585C7.37729 45.5083 6.33843 49.6957 6.29565 49.8734C6.18327 50.3409 6.36772 50.8297 6.76112 51.1061C6.88241 51.1915 9.23917 52.8235 11.7516 52.8235C12.3364 52.8235 12.9302 52.7349 13.5056 52.5178C15.5224 51.7568 16.6595 49.6654 17.2104 48.2864C19.4481 49.5235 21.9526 50.3304 24.6091 50.6052C24.6501 50.6094 24.6908 50.6115 24.7311 50.6115C25.3242 50.6115 25.833 50.1629 25.8954 49.5601C25.9617 48.9163 25.4939 48.3403 24.8501 48.2737ZM6.36444 42.2028C5.23768 41.9096 4.35386 40.6179 3.86729 39.6655C4.75909 39.0704 6.163 38.373 7.29058 38.6667C8.41733 38.9599 9.30116 40.2516 9.78772 41.204C8.89593 41.7991 7.4919 42.496 6.36444 42.2028ZM3.98671 32.9758C3.10229 32.4522 2.65522 31.1486 2.46104 30.1938C3.38659 29.9091 4.75815 29.671 5.64128 30.1938C6.52569 30.7174 6.97276 32.021 7.16694 32.9758C6.2414 33.2601 4.86972 33.4985 3.98671 32.9758ZM12.678 50.3249C11.4724 50.7799 9.84796 50.1634 8.82878 49.6213C9.23565 48.5404 10.0468 47.006 11.252 46.5513C12.4576 46.0966 14.0822 46.7129 15.1012 47.2549C14.6944 48.3356 13.8832 49.87 12.678 50.3249Z" fill="#B4B7C9"/>
<path d="M46.7325 35.2978V14.1752C46.7325 13.8225 46.5735 13.4885 46.2998 13.2659C46.026 13.0434 45.6665 12.956 45.3213 13.028C44.9191 13.112 44.5046 13.1545 44.0893 13.1545C41.1465 13.1545 38.6584 11.052 38.1733 8.15516C38.0787 7.59043 37.59 7.17676 37.0175 7.17676H22.9824C22.41 7.17676 21.9212 7.59043 21.8266 8.15516C21.3416 11.0519 18.8534 13.1545 15.9106 13.1545C15.4954 13.1545 15.0808 13.112 14.6786 13.028C14.3333 12.956 13.9739 13.0434 13.7001 13.2659C13.4264 13.4885 13.2675 13.8225 13.2675 14.1752V35.2978C13.2675 37.7064 14.6749 39.9273 16.8529 40.9556L29.4997 46.9268C29.6581 47.0016 29.8291 47.039 30.0001 47.039C30.171 47.039 30.342 47.0016 30.5005 46.9268L43.1472 40.9556C45.3251 39.9273 46.7325 37.7064 46.7325 35.2978ZM30 44.5712L17.8536 38.8362C16.4914 38.1931 15.6112 36.8042 15.6112 35.2979V15.4928C15.7109 15.4964 15.8108 15.4981 15.9106 15.4981C19.6638 15.4981 22.8853 13.0374 23.9142 9.52051H36.0859C37.1148 13.0375 40.3362 15.4981 44.0894 15.4981C44.1893 15.4981 44.2891 15.4964 44.3888 15.4928V35.2978C44.3888 36.8041 43.5086 38.1931 42.1464 38.8362L30 44.5712Z" fill="#B4B7C9"/>
<path d="M19.5956 35.2525V18.9266C22.4921 18.0271 24.9444 16.0895 26.4895 13.5049H33.5104C35.0557 16.0893 37.5078 18.027 40.4043 18.9266V35.2525L30 40.165L19.5956 35.2525Z" fill="#EFF2FC"/>
<path d="M32.1585 24.2393C32.1585 23.592 31.6339 23.0674 30.9866 23.0674H28.9901C28.3429 23.0674 27.8182 23.592 27.8182 24.2393C27.8182 24.8275 28.2516 25.3145 28.8166 25.3984V28.5977C28.2517 28.6816 27.8182 29.1685 27.8182 29.7568C27.8182 30.404 28.3429 30.9287 28.9901 30.9287H30.9866C31.6339 30.9287 32.1585 30.404 32.1585 29.7568C32.1585 29.1686 31.7252 28.6817 31.1603 28.5977V25.3984C31.7252 25.3145 32.1585 24.8275 32.1585 24.2393Z" fill="#9397AD"/>
</g>
<defs>
<clipPath id="clip0_1_596">
<rect width="60" height="60" fill="white"/>
</clipPath>
</defs>
</svg>
