<svg width="60" height="60" viewBox="0 0 60 60" fill="none" xmlns="http://www.w3.org/2000/svg">
<g clip-path="url(#clip0_1_605)">
<path d="M29.9884 44.1301C37.8002 44.1301 44.1328 37.8042 44.1328 30.0009C44.1328 22.1976 37.8002 15.8717 29.9884 15.8717C22.1767 15.8717 15.844 22.1976 15.844 30.0009C15.844 37.8042 22.1767 44.1301 29.9884 44.1301Z" fill="#EFF2FC"/>
<path d="M59.3848 31.7278C59.2144 31.6357 55.1747 29.4921 52.1222 31.0746C52.0407 31.1169 51.9608 31.1613 51.8827 31.2077C51.9045 30.808 51.9158 30.4054 51.9158 30.0004C51.9158 29.8196 51.9135 29.6393 51.9091 29.4594C52.1351 29.4739 52.3804 29.4831 52.6394 29.4831C54.0753 29.4831 55.9294 29.2001 57.2235 27.9746C59.577 25.746 58.9131 21.505 58.8837 21.3255C58.806 20.8515 58.4468 20.4728 57.9776 20.3702C57.7997 20.3314 53.5969 19.4442 51.2444 21.6719C50.9881 21.9146 50.7675 22.1812 50.5781 22.4639C47.4957 14.0885 39.4293 8.09802 29.9885 8.09802C20.556 8.09802 12.4955 14.0781 9.40712 22.442C9.22103 22.1675 9.00529 21.9084 8.75568 21.6721C6.40314 19.4442 2.20022 20.3314 2.02245 20.3703C1.55311 20.4729 1.19394 20.8516 1.11636 21.3257C1.08694 21.5051 0.423078 25.7461 2.77655 27.9747C4.07065 29.2003 5.92467 29.4832 7.36068 29.4832C7.61088 29.4832 7.8483 29.4746 8.06791 29.4609C8.06357 29.6403 8.06123 29.8201 8.06123 30.0006C8.06123 30.4009 8.07213 30.7987 8.09345 31.1939C8.02291 31.1525 7.95095 31.1128 7.87759 31.0747C4.8251 29.4923 0.785538 31.6359 0.615031 31.7279C0.192102 31.9562 -0.0486005 32.4195 0.00800094 32.897C0.0307353 33.0893 0.600734 37.6238 3.65428 39.2069C4.4726 39.6311 5.36182 39.7876 6.22842 39.7876C7.69982 39.7876 9.10595 39.3365 9.98907 38.9792C10.2512 39.5596 10.5381 40.1267 10.8482 40.679C10.1877 40.5183 9.4929 40.4581 8.78545 40.5557C5.20069 41.0503 3.03026 45.3567 2.93956 45.5397C2.72628 45.9706 2.79776 46.4881 3.11991 46.8449C3.24799 46.9867 6.10467 50.1063 9.40583 50.1063C9.63494 50.1063 9.86638 50.0913 10.0989 50.0592C12.5597 49.7197 14.3539 47.584 15.2665 46.2189C19.1609 49.7492 24.3274 51.903 29.9883 51.903C35.656 51.903 40.8283 49.7439 44.7243 46.2059C45.6342 47.5704 47.432 49.7185 49.9006 50.059C50.1333 50.0911 50.3644 50.1061 50.5936 50.1061C53.8946 50.1061 56.7515 46.9866 56.8796 46.8448C57.2017 46.488 57.2732 45.9705 57.0599 45.5396C56.9693 45.3565 54.7989 41.0501 51.214 40.5556C50.497 40.4568 49.7929 40.5202 49.1243 40.6859C49.4374 40.1289 49.7267 39.5568 49.9909 38.9712C50.8727 39.3298 52.2886 39.7875 53.7711 39.7875C54.6374 39.7875 55.527 39.6309 56.3452 39.2068C59.3987 37.6238 59.9687 33.0891 59.9915 32.8968C60.0483 32.4194 59.8077 31.9561 59.3848 31.7278ZM52.8558 23.3736C53.7827 22.496 55.504 22.4358 56.6462 22.5399C56.6896 23.6851 56.5375 25.3962 55.6118 26.2728C54.6851 27.1506 52.9634 27.2108 51.8214 27.1065C51.7781 25.9613 51.9303 24.2503 52.8558 23.3736ZM4.38823 26.2728C3.46233 25.396 3.31034 23.6842 3.3537 22.5402C4.49674 22.4354 6.21764 22.4962 7.14424 23.3736C8.07013 24.2504 8.22213 25.9623 8.17888 27.1064C7.0356 27.2106 5.31471 27.1502 4.38823 26.2728ZM4.73323 37.1259C3.4621 36.4669 2.78089 34.657 2.49014 33.4434C3.65264 32.9817 5.5274 32.4962 6.79912 33.1554C8.06838 33.8134 8.74947 35.6191 9.04091 36.8327C7.99092 37.2509 6.07783 37.823 4.73323 37.1259ZM9.77884 47.7371C8.22037 47.9517 6.46643 46.7492 5.4626 45.8606C6.11193 44.8496 7.45502 43.1049 9.10595 42.8772C10.6629 42.6622 12.4184 43.865 13.4222 44.7537C12.7729 45.7647 11.4298 47.5094 9.77884 47.7371ZM29.9885 49.559C19.1901 49.559 10.4051 40.7851 10.4051 30.0004C10.4051 19.2158 19.1901 10.4418 29.9885 10.4418C40.7868 10.4418 49.572 19.2157 49.572 30.0003C49.572 40.785 40.7868 49.559 29.9885 49.559ZM50.8941 42.8772C52.4538 43.0924 53.8178 44.7292 54.542 45.8565C53.5381 46.7463 51.7804 47.9518 50.2212 47.7371C48.6616 47.5219 47.2975 45.8851 46.5733 44.7578C47.5772 43.868 49.3348 42.6621 50.8941 42.8772ZM55.2668 37.1259C53.9968 37.7844 52.1248 37.3007 50.9629 36.84C51.2248 35.7419 51.8573 33.8519 53.2009 33.1554C54.4711 32.4969 56.3431 32.9804 57.5049 33.4413C57.2429 34.5393 56.6105 36.4293 55.2668 37.1259Z" fill="#B4B7C9"/>
<path d="M32.1587 27.2412C32.1587 26.594 31.634 26.0693 30.9868 26.0693H28.9903C28.3431 26.0693 27.8184 26.594 27.8184 27.2412C27.8184 27.8295 28.2518 28.3164 28.8167 28.4003V31.5996C28.2519 31.6835 27.8184 32.1705 27.8184 32.7587C27.8184 33.406 28.3431 33.9306 28.9903 33.9306H30.9868C31.634 33.9306 32.1587 33.406 32.1587 32.7587C32.1587 32.1706 31.7253 31.6837 31.1605 31.5996V28.4003C31.7253 28.3164 32.1587 27.8295 32.1587 27.2412Z" fill="#9397AD"/>
</g>
<defs>
<clipPath id="clip0_1_605">
<rect width="60" height="60" fill="white"/>
</clipPath>
</defs>
</svg>
