<svg width="60" height="60" viewBox="0 0 60 60" fill="none" xmlns="http://www.w3.org/2000/svg">
<g clip-path="url(#clip0_1_588)">
<path d="M40.8427 22.9105V16.2484C37.8242 15.3091 35.2686 13.2858 33.6584 10.5872H26.3416C24.7314 13.2859 22.1759 15.3092 19.1573 16.2484V22.9105H40.8427Z" fill="#EFF2FC"/>
<path d="M19.1573 37.0741V43.7135L30 48.8431L40.8427 43.7135V37.0741H19.1573Z" fill="#EFF2FC"/>
<path d="M58.0377 35.3872L59.9492 29.1094C60.0574 28.7542 59.9907 28.3687 59.7698 28.0705C59.5488 27.7721 59.1995 27.5962 58.8282 27.5962H47.388V11.2865C47.388 10.9337 47.2291 10.5996 46.9553 10.377C46.6813 10.1545 46.3215 10.067 45.9765 10.1394C45.554 10.2276 45.1188 10.2724 44.683 10.2724C41.5922 10.2724 38.9789 8.05896 38.4692 5.00927C38.3748 4.44442 37.886 4.03052 37.3134 4.03052H22.6868C22.1141 4.03052 21.6253 4.44442 21.531 5.00927C21.0212 8.05896 18.4079 10.2724 15.3171 10.2724C14.8813 10.2724 14.446 10.2276 14.0235 10.1394C13.6781 10.067 13.3186 10.1544 13.0447 10.377C12.7708 10.5996 12.6119 10.9337 12.6119 11.2865V27.5961H1.17185C0.800603 27.5961 0.451267 27.772 0.230251 28.0704C0.00923546 28.3686 -0.057327 28.754 0.050837 29.1092L1.9624 35.3871L0.050837 41.6651C-0.057327 42.0202 0.00923546 42.4057 0.230251 42.704C0.451267 43.0024 0.800603 43.1783 1.17185 43.1783H12.612V43.76C12.612 46.2548 14.0673 48.5552 16.3195 49.6207L29.4989 55.8558C29.6576 55.9308 29.8288 55.9683 30 55.9683C30.1713 55.9683 30.3425 55.9308 30.5011 55.8558L43.6806 49.6207C45.9327 48.5552 47.3879 46.2548 47.3879 43.76V43.1783H58.8281C59.1994 43.1783 59.5487 43.0024 59.7697 42.704C59.9907 42.4058 60.0573 42.0204 59.9491 41.6652L58.0377 35.3872ZM14.9558 24.0819H45.0442V35.9015H14.9558V24.0819ZM15.3171 12.6163C19.2195 12.6163 22.567 10.045 23.6212 6.37439H36.3788C37.4329 10.045 40.7805 12.6163 44.6829 12.6163C44.8033 12.6163 44.9238 12.6138 45.0442 12.6088V21.7381H14.9558V12.6088C15.0761 12.6137 15.1966 12.6163 15.3171 12.6163ZM2.75365 40.8347L4.05549 36.5592H7.98654C8.63377 36.5592 9.15841 36.0345 9.15841 35.3873C9.15841 34.7401 8.63377 34.2154 7.98654 34.2154H4.05549L2.75365 29.94H12.612V40.8347H2.75365ZM42.6784 47.5022L30 53.5002L17.3217 47.5022C15.8844 46.8222 14.9558 45.3534 14.9558 43.7601V38.2453H45.0442V43.7601C45.0442 45.3534 44.1154 46.8222 42.6784 47.5022ZM47.3879 40.8347V29.94H57.2463L55.9445 34.2154H52.0133C51.3662 34.2154 50.8414 34.7401 50.8414 35.3873C50.8414 36.0345 51.3662 36.5592 52.0133 36.5592H55.9445L57.2463 40.8347H47.3879Z" fill="#B4B7C9"/>
</g>
<defs>
<clipPath id="clip0_1_588">
<rect width="60" height="60" fill="white"/>
</clipPath>
</defs>
</svg>
