<svg width="32" height="32" viewBox="0 0 32 32" fill="none" xmlns="http://www.w3.org/2000/svg">
<g clip-path="url(#clip0_1_467)">
<path d="M29.2834 19.1609C29.0246 18.521 28.296 18.2117 27.656 18.4705C27.016 18.7293 26.7068 19.4578 26.9656 20.0979L28.4378 23.7395L24.0654 21.8121C23.7489 21.6726 23.3887 21.6704 23.0706 21.8061C21.5763 22.4437 19.9756 22.767 18.3128 22.767C11.6208 22.767 7.12536 17.5273 7.12536 12.6335C7.12536 7.04586 12.144 2.5 18.3128 2.5C24.4816 2.5 29.5003 7.04586 29.5003 12.6335C29.5003 13.0694 29.4597 13.5914 29.389 14.0655C29.2871 14.7483 29.7581 15.3844 30.4409 15.4863C31.1238 15.5884 31.7598 15.1172 31.8616 14.4344C31.9511 13.835 32.0003 13.1954 32.0003 12.6335C32.0003 9.23786 30.5624 6.05174 27.9514 3.66206C25.3713 1.30056 21.9482 0 18.3128 0C14.6775 0 11.2545 1.30056 8.6743 3.66199C6.34105 5.79749 4.94556 8.56923 4.67487 11.5579C1.74006 13.5014 0.000377369 16.6157 0.000377369 19.9703C0.000377369 22.0658 0.660564 24.054 1.91725 25.7651L0.0915022 30.2814C-0.099185 30.7531 0.0150023 31.2933 0.380314 31.6474C0.618376 31.8783 0.932063 32 1.25062 32C1.42081 31.9999 1.59244 31.9653 1.75456 31.8938L7.01886 29.5731C8.34311 30.0661 9.74292 30.3156 11.1878 30.3156C11.219 30.3156 11.2497 30.3132 11.2804 30.3109C13.3702 30.2951 15.4019 29.7454 17.1615 28.7168C18.7377 27.7953 20.0342 26.5294 20.9431 25.0345C21.8305 24.8751 22.6979 24.6343 23.5398 24.3125L30.2461 27.2688C30.4083 27.3402 30.5798 27.375 30.75 27.375C31.0686 27.3749 31.3823 27.2532 31.6204 27.0224C31.9857 26.6683 32.0999 26.1281 31.9092 25.6565L29.2834 19.1609ZM11.1879 27.8124C11.1709 27.8124 11.1542 27.8143 11.1373 27.815C9.86092 27.8085 8.63242 27.5576 7.48511 27.0681C7.16705 26.9323 6.80686 26.9345 6.49037 27.0741L3.56306 28.3644L4.50737 26.0285C4.68193 25.5967 4.60187 25.1036 4.29974 24.7491C3.12256 23.3681 2.50037 21.7156 2.50037 19.9703C2.50037 17.9727 3.34068 16.08 4.81093 14.6449C5.26868 17.1402 6.56024 19.5272 8.50855 21.4023C10.933 23.7356 14.1399 25.0874 17.6027 25.2501C15.9769 26.8504 13.6504 27.8124 11.1879 27.8124Z" fill="#B4B7C9"/>
<path d="M18.2501 13.9375C18.9404 13.9375 19.5001 13.3779 19.5001 12.6875C19.5001 11.9971 18.9404 11.4375 18.2501 11.4375C17.5597 11.4375 17.0001 11.9971 17.0001 12.6875C17.0001 13.3779 17.5597 13.9375 18.2501 13.9375Z" fill="#6366F1"/>
<path d="M23.2501 13.9375C23.9404 13.9375 24.5001 13.3779 24.5001 12.6875C24.5001 11.9971 23.9404 11.4375 23.2501 11.4375C22.5597 11.4375 22.0001 11.9971 22.0001 12.6875C22.0001 13.3779 22.5597 13.9375 23.2501 13.9375Z" fill="#6366F1"/>
<path d="M13.2501 13.9375C13.9404 13.9375 14.5001 13.3779 14.5001 12.6875C14.5001 11.9971 13.9404 11.4375 13.2501 11.4375C12.5597 11.4375 12.0001 11.9971 12.0001 12.6875C12.0001 13.3779 12.5597 13.9375 13.2501 13.9375Z" fill="#6366F1"/>
</g>
<defs>
<clipPath id="clip0_1_467">
<rect width="32" height="32" fill="white"/>
</clipPath>
</defs>
</svg>
