<svg width="32" height="30" viewBox="0 0 32 30" fill="none" xmlns="http://www.w3.org/2000/svg">
<path d="M31.6846 23.8097C31.647 23.7235 31.5997 23.6418 31.5437 23.5662L28.7783 19.8329C28.5903 19.3802 28.1444 19.0617 27.6238 19.0617H5.62584V5.93798C5.62584 4.5596 6.74721 3.43823 8.12559 3.43823H23.8741C25.2525 3.43823 26.3738 4.5596 26.3738 5.93798V14.0622C26.3738 14.7525 26.9334 15.3121 27.6237 15.3121C28.314 15.3121 28.8736 14.7525 28.8736 14.0622V5.93792C28.8736 3.18117 26.6308 0.938354 23.8741 0.938354H8.12565C5.3689 0.938354 3.12615 3.18117 3.12615 5.93792V19.9616L0.456025 23.5662C0.400025 23.6418 0.352712 23.7235 0.315087 23.8097C-0.193225 24.973 -0.0817254 26.3017 0.6134 27.3641C1.30852 28.4265 2.48146 29.0607 3.75102 29.0607H28.2487C29.5183 29.0607 30.6912 28.4265 31.3863 27.3641C32.0815 26.3017 32.193 24.973 31.6846 23.8097ZM29.2946 25.9954C29.0595 26.3548 28.6783 26.5609 28.2488 26.5609H20.3745C20.3745 25.8706 19.8149 25.311 19.1246 25.311H12.8751C12.1848 25.311 11.6253 25.8706 11.6253 26.5609H3.75102C3.32152 26.5609 2.94027 26.3548 2.70515 25.9954C2.49184 25.6694 2.44215 25.2838 2.56315 24.9212L5.00559 21.6239H26.9942L29.4366 24.9212C29.5575 25.2838 29.508 25.6694 29.2946 25.9954Z" fill="#B4B7C9"/>
<path d="M12.6254 11.5007V11.5632V15.2504V15.3129C12.6254 16.0032 13.1849 16.5627 13.8753 16.5627C14.5656 16.5627 15.1251 16.0032 15.1251 15.3129V15.2504V11.5632V11.5007C15.1251 10.8104 14.5656 10.2509 13.8753 10.2509C13.1849 10.2508 12.6254 10.8104 12.6254 11.5007Z" fill="#6366F1"/>
<path d="M8.25047 10.2498V10.3123V15.2493V15.3118C8.25047 16.0021 8.81004 16.5617 9.50035 16.5617C10.1907 16.5617 10.7502 16.0021 10.7502 15.3118V15.2493V10.3123V10.2498C10.7502 9.55944 10.1907 8.99988 9.50035 8.99988C8.81004 8.99988 8.25047 9.55944 8.25047 10.2498Z" fill="#6366F1"/>
<path d="M16.9998 7.12603V7.18853V15.2503V15.3128C16.9998 16.0031 17.5594 16.5626 18.2497 16.5626C18.94 16.5626 19.4996 16.0031 19.4996 15.3128V15.2503V7.18853V7.12603C19.4996 6.43572 18.94 5.87616 18.2497 5.87616C17.5594 5.8761 16.9998 6.43572 16.9998 7.12603Z" fill="#6366F1"/>
<path d="M21.3743 13.4377V13.5002V15.2501V15.3126C21.3743 16.0029 21.9339 16.5624 22.6242 16.5624C23.3145 16.5624 23.8741 16.0029 23.8741 15.3126V15.2501V13.5002V13.4377C23.8741 12.7474 23.3145 12.1879 22.6242 12.1879C21.9339 12.1879 21.3743 12.7474 21.3743 13.4377Z" fill="#6366F1"/>
</svg>
