<svg width="32" height="32" viewBox="0 0 32 32" fill="none" xmlns="http://www.w3.org/2000/svg">
<g clip-path="url(#clip0_1_444)">
<path d="M22.8163 7.6875C22.8149 7.6875 22.8134 7.6875 22.8119 7.6875C22.4788 7.6875 22.1594 7.8205 21.9246 8.05706L14.753 15.2846L12.0687 12.5602C11.8357 12.3238 11.5183 12.1897 11.1864 12.1875C11.1837 12.1875 11.181 12.1875 11.1783 12.1875C10.8493 12.1875 10.5335 12.3173 10.2994 12.5487L5.49598 17.2987C5.00511 17.7841 5.00067 18.5756 5.48611 19.0664C5.73061 19.3137 6.05261 19.4376 6.37498 19.4375C6.69248 19.4375 7.01023 19.3172 7.25386 19.0763L11.1668 15.2068L13.8595 17.9398C14.0939 18.1777 14.4137 18.3119 14.7477 18.3124C14.7485 18.3124 14.7492 18.3124 14.7499 18.3124C15.0831 18.3124 15.4025 18.1794 15.6372 17.9429L22.8057 10.7184L24.7314 12.6867C25.2144 13.1802 26.0057 13.1887 26.4991 12.7059C26.9925 12.2231 27.0012 11.4317 26.5184 10.9382L23.7054 8.06325C23.4712 7.82406 23.151 7.68869 22.8163 7.6875Z" fill="#6366F1"/>
<path d="M30.75 15.125C31.4404 15.125 32 14.5654 32 13.875V3.8125C32 3.12213 31.4404 2.5625 30.75 2.5625H17.25V1.25C17.25 0.559625 16.6904 0 16 0C15.3096 0 14.75 0.559625 14.75 1.25V2.5625H1.25C0.559625 2.5625 0 3.12213 0 3.8125V20.1875C0 22.9445 2.243 25.1875 5 25.1875H14.75V29.5H11C10.3096 29.5 9.75 30.0596 9.75 30.75C9.75 31.4404 10.3096 32 11 32H20.9375C21.6279 32 22.1875 31.4404 22.1875 30.75C22.1875 30.0596 21.6279 29.5 20.9375 29.5H17.25V25.1875H27C29.757 25.1875 32 22.9445 32 20.1875C32 19.4971 31.4404 18.9375 30.75 18.9375C30.0596 18.9375 29.5 19.4971 29.5 20.1875C29.5 21.566 28.3785 22.6875 27 22.6875H5C3.6215 22.6875 2.5 21.566 2.5 20.1875V5.0625H29.5V13.875C29.5 14.5654 30.0596 15.125 30.75 15.125Z" fill="#B4B7C9"/>
</g>
<defs>
<clipPath id="clip0_1_444">
<rect width="32" height="32" fill="white"/>
</clipPath>
</defs>
</svg>
