<svg width="32" height="32" viewBox="0 0 32 32" fill="none" xmlns="http://www.w3.org/2000/svg">
<g clip-path="url(#clip0_1_432)">
<path d="M9.28572 18.4486C8.90272 18.7956 8.77272 19.3426 8.95866 19.8248C9.1446 20.3069 9.6081 20.625 10.125 20.625H14C14.6903 20.625 15.25 20.0654 15.25 19.375C15.25 18.6846 14.6903 18.125 14 18.125H13.1047C14.9307 16.0553 15.1694 15.0349 15.1694 14.375C15.1694 12.6519 13.7675 11.25 12.0444 11.25C12.0369 11.25 12.0297 11.251 12.0222 11.2511C12.0147 11.251 12.0075 11.25 12 11.25C10.2768 11.25 8.87497 12.6519 8.87497 14.375C8.87497 15.0654 9.4346 15.625 10.125 15.625C10.8153 15.625 11.375 15.0654 11.375 14.375C11.375 14.0362 11.6612 13.75 12 13.75C12.0075 13.75 12.0147 13.749 12.0222 13.7489C12.0297 13.749 12.0368 13.75 12.0443 13.75C12.3788 13.75 12.6619 14.0289 12.6692 14.3619C12.657 14.4262 12.503 15.0701 11.0323 16.6919C10.161 17.6528 9.29416 18.441 9.28572 18.4486Z" fill="#6366F1"/>
<path d="M22.9836 27.5565C20.884 28.8283 18.4691 29.5006 16 29.5006C15.3096 29.5006 14.75 30.0602 14.75 30.7506C14.75 31.4409 15.3096 32.0006 16 32.0006C18.9258 32.0006 21.7886 31.2032 24.2789 29.6947C24.8693 29.3369 25.0581 28.5684 24.7004 27.9779C24.3426 27.3873 23.574 27.1988 22.9836 27.5565Z" fill="#B4B7C9"/>
<path d="M27.3137 4.68625C24.2917 1.66431 20.2738 0 16 0C11.7262 0 7.70831 1.66431 4.68625 4.68625C1.66431 7.70831 0 11.7262 0 16C0 19.0206 0.84625 21.9625 2.44725 24.5079C3.71594 26.525 5.41269 28.228 7.40856 29.5H3.9375C3.24713 29.5 2.6875 30.0596 2.6875 30.75C2.6875 31.4404 3.24713 32 3.9375 32H7.75362C9.95925 32 11.7536 30.2056 11.7536 28V24.3125C11.7536 23.6221 11.194 23.0625 10.5036 23.0625C9.81325 23.0625 9.25362 23.6221 9.25362 24.3125V27.6966C5.06856 25.2854 2.5 20.8722 2.5 16C2.5 8.55606 8.55606 2.5 16 2.5C23.4439 2.5 29.5 8.55606 29.5 16C29.5 18.6618 28.7084 21.2528 27.2109 23.4928C26.8272 24.0666 26.9814 24.8429 27.5553 25.2267C28.1292 25.6103 28.9055 25.4561 29.2891 24.8822C31.0626 22.2296 32 19.1581 32 16C32 11.7262 30.3357 7.70831 27.3137 4.68625Z" fill="#B4B7C9"/>
<path d="M18.3125 11.25C17.6221 11.25 17.0625 11.8096 17.0625 12.5V14.0312C17.0625 15.9095 18.5905 17.4375 20.4688 17.4375C20.7826 17.4375 21.0862 17.3939 21.375 17.3141V19.375C21.375 20.0654 21.9346 20.625 22.625 20.625C23.3154 20.625 23.875 20.0654 23.875 19.375V12.5C23.875 11.8096 23.3154 11.25 22.625 11.25C21.9346 11.25 21.375 11.8096 21.375 12.5V14.0312C21.375 14.5309 20.9684 14.9375 20.4688 14.9375C19.9691 14.9375 19.5625 14.5309 19.5625 14.0312V12.5C19.5625 11.8096 19.0029 11.25 18.3125 11.25Z" fill="#6366F1"/>
</g>
<defs>
<clipPath id="clip0_1_432">
<rect width="32" height="32" fill="white"/>
</clipPath>
</defs>
</svg>
