<svg width="15" height="16" viewBox="0 0 15 16" fill="none" xmlns="http://www.w3.org/2000/svg">
<path d="M3.125 10.25C3.8075 10.25 4.42475 9.9815 4.89275 9.5525L9.58775 12.2352C9.536 12.4415 9.5 12.653 9.5 12.875C9.5 14.3225 10.6775 15.5 12.125 15.5C13.5725 15.5 14.75 14.3225 14.75 12.875C14.75 11.4275 13.5725 10.25 12.125 10.25C11.4425 10.25 10.8252 10.5185 10.3572 10.9475L5.66225 8.26475C5.7095 8.0795 5.7395 7.88825 5.74325 7.68875L10.3565 5.0525C10.8253 5.4815 11.4425 5.75 12.125 5.75C13.5725 5.75 14.75 4.5725 14.75 3.125C14.75 1.6775 13.5725 0.5 12.125 0.5C10.6775 0.5 9.5 1.6775 9.5 3.125C9.5 3.347 9.536 3.5585 9.58775 3.76475L5.32475 6.2015C4.856 5.48 4.04675 5 3.125 5C1.6775 5 0.5 6.1775 0.5 7.625C0.5 9.0725 1.6775 10.25 3.125 10.25ZM12.125 11.75C12.7453 11.75 13.25 12.2547 13.25 12.875C13.25 13.4953 12.7453 14 12.125 14C11.5047 14 11 13.4953 11 12.875C11 12.2547 11.5047 11.75 12.125 11.75ZM12.125 2C12.7453 2 13.25 2.50475 13.25 3.125C13.25 3.74525 12.7453 4.25 12.125 4.25C11.5047 4.25 11 3.74525 11 3.125C11 2.50475 11.5047 2 12.125 2ZM3.125 6.5C3.74525 6.5 4.25 7.00475 4.25 7.625C4.25 8.24525 3.74525 8.75 3.125 8.75C2.50475 8.75 2 8.24525 2 7.625C2 7.00475 2.50475 6.5 3.125 6.5Z" fill="#9397AD"/>
</svg>
