<svg width="40" height="40" viewBox="0 0 40 40" fill="none" xmlns="http://www.w3.org/2000/svg">
<g clip-path="url(#clip0_1_514)">
<path d="M29.6986 18.6082C31.9832 16.3236 31.9832 12.6066 29.6986 10.322C27.4089 8.03229 23.7026 8.03168 21.4125 10.322C19.128 12.6063 19.128 16.3236 21.4125 18.6082C23.7023 20.8979 27.4086 20.8982 29.6986 18.6082ZM23.0696 11.9791C24.4435 10.6055 26.6673 10.6052 28.0415 11.9791C29.4121 13.35 29.4121 15.5802 28.0415 16.951C26.6677 18.325 24.4438 18.3253 23.0696 16.951C21.6991 15.5802 21.6991 13.35 23.0696 11.9791Z" fill="white"/>
<path d="M0.053629 38.4767C-0.0772908 38.893 0.0337927 39.3474 0.341714 39.6562C0.64994 39.9651 1.10435 40.0774 1.5206 39.9474C2.53806 39.6297 11.5322 36.7751 13.9546 34.3529C14.6034 33.7038 15.1317 32.9707 15.5214 32.1858C15.7445 32.1989 15.9444 32.1526 16.1232 32.0613C17.0131 31.6072 17.9607 31.1357 18.9619 30.6346C19.4273 36.7 19.3904 35.7146 19.3919 36.3884C19.3941 37.263 20.3172 37.8218 21.0905 37.4324C21.3826 37.2383 24.4142 36.1305 26.551 32.6662C27.7372 30.7432 28.3564 28.5319 28.3564 26.2718V25.4665C30.1207 24.3251 31.7625 23.1062 33.1083 21.8068C38.9307 16.1858 40.2454 9.2665 39.9644 1.16653C39.943 0.551294 39.4489 0.0572146 38.8337 0.0358524C30.7359 -0.245215 23.8151 1.06857 18.1932 6.89193C16.9194 8.21151 15.7222 9.76028 14.6001 11.4854H13.6254C9.06482 11.4854 4.82259 14.0919 2.74618 18.2469L2.46481 18.8066C2.28201 19.1695 2.30032 19.6007 2.51303 19.9467C2.72574 20.2928 3.10232 20.5043 3.50851 20.5052C4.17349 20.507 3.14779 20.46 9.3761 21.017C8.88477 21.999 8.39588 22.9808 7.93904 23.8768C7.8368 24.077 7.79713 24.2964 7.81544 24.5097C7.03816 24.8985 6.31184 25.4231 5.66854 26.0664C3.24698 28.4877 0.373452 37.4614 0.053629 38.4767ZM15.8186 29.5879L10.4122 24.1814C10.7558 23.5002 11.1034 22.8023 11.5184 21.9731L18.0269 28.4819C17.1736 28.9088 16.5083 29.2403 15.8186 29.5879ZM21.617 34.4707L21.2224 29.4939C22.7962 28.6891 24.4209 27.8288 25.9999 26.9118C25.803 30.0081 24.1835 32.7846 21.617 34.4707ZM37.6496 2.35031C37.689 4.91012 37.5407 7.17575 37.1839 9.2131C33.8581 8.74313 31.2571 6.14181 30.7872 2.81631C32.8242 2.45956 35.0898 2.31124 37.6496 2.35031ZM19.8793 8.51974C22.3344 5.97671 25.0737 4.29122 28.4953 3.33267C28.8252 5.37033 29.7825 7.25082 31.266 8.73397C32.7494 10.2174 34.6296 11.1751 36.6673 11.5047C35.7087 14.9263 34.0232 17.6659 31.4802 20.1207C28.6427 22.8603 24.2802 25.2953 20.229 27.3695L12.6308 19.771C14.7048 15.7198 17.1397 11.3576 19.8793 8.51974ZM5.41494 18.2979C7.13002 15.6746 9.98218 14.0376 13.1526 13.889C12.2136 15.4994 11.3335 17.1602 10.5114 18.7678L5.41494 18.2979ZM9.31995 26.4037L10.6401 27.7238L8.15418 30.2098C7.69642 30.6673 7.69642 31.4094 8.15418 31.8669C8.61164 32.3247 9.35382 32.3247 9.81128 31.8669L12.2972 29.3809L13.6174 30.7011C13.3367 31.4241 12.8881 32.1046 12.2972 32.6955C10.9542 34.0388 6.24532 35.8653 3.02359 36.981C4.14602 33.766 5.98104 29.0681 7.32563 27.7238C7.91645 27.133 8.59699 26.6844 9.31995 26.4037Z" fill="white"/>
<path d="M19.7347 20.264C19.2773 19.8065 18.5351 19.8065 18.0776 20.264C17.6199 20.7218 17.6199 21.4636 18.0776 21.9214C18.5351 22.3789 19.2773 22.3789 19.7347 21.9214C20.1925 21.4636 20.1925 20.7218 19.7347 20.264Z" fill="white"/>
</g>
<defs>
<clipPath id="clip0_1_514">
<rect width="40" height="40" fill="white"/>
</clipPath>
</defs>
</svg>
