<svg width="40" height="40" viewBox="0 0 40 40" fill="none" xmlns="http://www.w3.org/2000/svg">
<g clip-path="url(#clip0_1_575)">
<path d="M35.6528 4.37775C29.7 -1.56342 20.014 -1.56342 14.0613 4.37775C8.96555 9.46352 8.23262 17.2788 11.8606 23.1507L1.06927 33.9206C-0.30426 35.2918 -0.30426 37.5226 1.06927 38.8938C2.44281 40.2646 4.67831 40.2646 6.05184 38.8938L11.0344 33.921C11.0344 33.921 11.0344 33.9206 11.0347 33.9206L16.8432 28.1235C22.7428 31.7545 30.5693 31.0004 35.6525 25.9272C41.6056 19.986 41.6056 10.3189 35.6528 4.37775ZM4.39119 37.2361C3.93345 37.6932 3.18828 37.6932 2.73023 37.2361C2.27249 36.7789 2.27249 36.0355 2.73023 35.5784L3.56071 34.7495L5.22167 36.4072L4.39119 37.2361ZM6.88232 34.7495L5.22167 33.0918L6.88232 31.4344L8.54328 33.0918L6.88232 34.7495ZM10.2042 31.4344L8.54328 29.7767L13.2623 25.0669C13.5158 25.3614 13.7818 25.6485 14.0613 25.9272C14.3407 26.2061 14.6282 26.4719 14.9232 26.7246L10.2042 31.4344ZM33.9919 24.2698C28.9549 29.2966 20.7592 29.2966 15.7219 24.2698C10.6852 19.2426 10.6852 11.0626 15.7219 6.03547C20.7589 1.0083 28.9545 1.008 33.9919 6.03547C39.0289 11.0626 39.0289 19.2426 33.9919 24.2698Z" fill="white"/>
<path d="M32.331 7.69264C28.2061 3.57551 21.5084 3.5752 17.383 7.69264C13.2581 11.8095 13.2578 18.494 17.383 22.6115C21.5081 26.7283 28.2058 26.7286 32.331 22.6115C36.4562 18.4944 36.4562 11.8098 32.331 7.69264ZM30.67 20.9538C27.4646 24.1529 22.2493 24.1529 19.0439 20.9538C15.8385 17.7546 15.8385 12.5492 19.0439 9.35036C22.2493 6.15119 27.4646 6.15089 30.67 9.35036C33.8754 12.5492 33.8754 17.7546 30.67 20.9538Z" fill="white"/>
<path d="M29.8542 11.9858C29.2741 11.6964 28.5687 11.9311 28.2785 12.5101L26.9802 15.1019L25.6819 12.5101C25.4828 12.113 25.0762 11.8622 24.6313 11.8622C24.1864 11.8622 23.78 12.113 23.5809 12.5101L22.2826 15.1019L20.984 12.5101C20.6941 11.9311 19.9884 11.6964 19.4084 11.9858C18.8283 12.2754 18.5932 12.9794 18.8834 13.5586L21.232 18.2471C21.4311 18.6441 21.8377 18.895 22.2826 18.895C22.7275 18.895 23.1339 18.6441 23.333 18.2471L24.6316 15.6552L25.9299 18.2471C26.1286 18.6441 26.5353 18.895 26.9802 18.895C27.4251 18.895 27.8318 18.6441 28.0309 18.2471L30.3795 13.5586C30.6697 12.9794 30.4345 12.2754 29.8542 11.9858Z" fill="white"/>
</g>
<defs>
<clipPath id="clip0_1_575">
<rect width="40" height="40" fill="white"/>
</clipPath>
</defs>
</svg>
