<svg width="16" height="16" viewBox="0 0 16 16" fill="none" xmlns="http://www.w3.org/2000/svg">
<path d="M14.6313 6.11937C14.5453 5.86737 14.318 5.68937 14.0527 5.66871L10.252 5.36671L8.60734 1.72604C8.50001 1.48671 8.26201 1.33337 8.00001 1.33337C7.73801 1.33337 7.50001 1.48671 7.39267 1.72537L5.74801 5.36671L1.94734 5.66871C1.68667 5.68937 1.46201 5.86071 1.37334 6.10671C1.28467 6.35271 1.34734 6.62804 1.53467 6.81071L4.34334 9.54871L3.35001 13.85C3.28867 14.116 3.39601 14.3927 3.62067 14.548C3.73534 14.6267 3.86734 14.6667 4.00001 14.6667C4.12867 14.6667 4.25801 14.6294 4.37001 14.5547L8.00001 12.1347L11.63 14.5547C11.862 14.7094 12.1667 14.7034 12.3933 14.5387C12.6187 14.374 12.718 14.0854 12.6413 13.8174L11.422 9.55071L14.446 6.82937C14.644 6.65071 14.7167 6.37204 14.6313 6.11937Z" fill="#FFBA08"/>
</svg>
