<svg width="124" height="32" viewBox="0 0 124 32" fill="none" xmlns="http://www.w3.org/2000/svg">
<path d="M36.87 10.0699H39.87V22.1999H36.87V10.0699ZM41.06 17.6199C41.06 14.6199 42.9 12.8299 45.74 12.8299C48.58 12.8299 50.42 14.6199 50.42 17.6199C50.42 20.6199 48.62 22.4199 45.74 22.4199C42.86 22.4199 41.06 20.6699 41.06 17.6199ZM47.41 17.6199C47.41 15.9699 46.76 14.9999 45.74 14.9999C44.72 14.9999 44.08 15.9999 44.08 17.6199C44.08 19.2399 44.71 20.2199 45.74 20.2199C46.77 20.2199 47.41 19.2999 47.41 17.6299V17.6199ZM51.55 22.7899H54.43C54.5671 23.0944 54.7988 23.3465 55.0907 23.5087C55.3826 23.6708 55.7191 23.7344 56.05 23.6899C57.19 23.6899 57.79 23.0699 57.79 22.1699V20.4899H57.73C57.491 21.0048 57.1031 21.4362 56.6165 21.7286C56.1299 22.0209 55.5668 22.1607 55 22.1299C52.81 22.1299 51.36 20.4599 51.36 17.5899C51.36 14.7199 52.74 12.9099 55.04 12.9099C55.6246 12.887 56.2022 13.0433 56.6955 13.3578C57.1888 13.6724 57.5742 14.1302 57.8 14.6699V12.9999H60.8V22.0999C60.8 24.2899 58.87 25.6499 56.02 25.6499C53.37 25.6499 51.72 24.4599 51.55 22.7999V22.7899ZM57.8 17.6099C57.8 16.1499 57.13 15.2299 56.07 15.2299C55.01 15.2299 54.36 16.1399 54.36 17.6099C54.36 19.0799 55 19.9099 56.07 19.9099C57.14 19.9099 57.8 19.0999 57.8 17.6199V17.6099ZM61.93 17.6099C61.93 14.6099 63.77 12.8199 66.61 12.8199C69.45 12.8199 71.3 14.6099 71.3 17.6099C71.3 20.6099 69.5 22.4099 66.61 22.4099C63.72 22.4099 61.93 20.6699 61.93 17.6199V17.6099ZM68.28 17.6099C68.28 15.9599 67.63 14.9899 66.61 14.9899C65.59 14.9899 65 15.9999 65 17.6299C65 19.2599 65.63 20.2299 66.65 20.2299C67.67 20.2299 68.28 19.2999 68.28 17.6299V17.6099ZM72.44 10.8199C72.4321 10.517 72.5144 10.2186 72.6763 9.96255C72.8383 9.70645 73.0726 9.50421 73.3496 9.38145C73.6266 9.25869 73.9338 9.22094 74.2323 9.27299C74.5308 9.32505 74.8071 9.46456 75.0262 9.67383C75.2454 9.88311 75.3974 10.1527 75.4631 10.4485C75.5288 10.7443 75.5052 11.0529 75.3952 11.3353C75.2853 11.6176 75.094 11.861 74.8456 12.0345C74.5973 12.208 74.3029 12.3039 74 12.3099C73.7992 12.3237 73.5977 12.2958 73.4082 12.228C73.2186 12.1602 73.0452 12.054 72.8987 11.9159C72.7522 11.7779 72.6358 11.611 72.5569 11.4258C72.4779 11.2407 72.4381 11.0412 72.44 10.8399V10.8199ZM72.44 13.0199H75.44V22.1999H72.44V13.0199ZM86.33 17.6099C86.33 20.6099 85 22.3199 82.72 22.3199C82.1354 22.3574 81.5533 22.2145 81.0525 21.9105C80.5517 21.6064 80.1564 21.1559 79.92 20.6199H79.86V25.1399H76.86V12.9999H79.86V14.6399H79.92C80.1454 14.095 80.5332 13.6328 81.0306 13.3161C81.528 12.9994 82.1109 12.8436 82.7 12.8699C85 12.9099 86.37 14.6299 86.37 17.6299L86.33 17.6099ZM83.33 17.6099C83.33 16.1499 82.66 15.2199 81.61 15.2199C80.56 15.2199 79.89 16.1599 79.88 17.6099C79.87 19.0599 80.56 19.9899 81.61 19.9899C82.66 19.9899 83.33 19.0799 83.33 17.6299V17.6099ZM91.48 12.8099C93.97 12.8099 95.48 13.9899 95.55 15.8799H92.82C92.82 15.2299 92.28 14.8199 91.45 14.8199C90.62 14.8199 90.25 15.1399 90.25 15.6099C90.25 16.0799 90.58 16.2299 91.25 16.3699L93.17 16.7599C95 17.1499 95.78 17.8899 95.78 19.2799C95.78 21.1799 94.05 22.3999 91.5 22.3999C88.95 22.3999 87.28 21.1799 87.15 19.3099H90.04C90.13 19.9899 90.67 20.3899 91.55 20.3899C92.43 20.3899 92.83 20.0999 92.83 19.6199C92.83 19.1399 92.55 19.0399 91.83 18.8899L90.1 18.5199C88.31 18.1499 87.37 17.1999 87.37 15.7999C87.39 13.9999 89 12.8299 91.48 12.8299V12.8099ZM105.79 22.1799H102.9V20.4699H102.84C102.681 21.044 102.331 21.5465 101.847 21.894C101.363 22.2414 100.775 22.4129 100.18 22.3799C99.7242 22.4058 99.2682 22.3336 98.8427 22.1681C98.4172 22.0026 98.0322 21.7478 97.7137 21.4207C97.3952 21.0937 97.1505 20.702 96.9964 20.2723C96.8422 19.8426 96.7821 19.3848 96.82 18.9299V12.9999H99.82V18.2399C99.82 19.3299 100.38 19.9099 101.31 19.9099C101.528 19.9103 101.744 19.8642 101.943 19.7745C102.141 19.6848 102.319 19.5536 102.463 19.3898C102.606 19.2259 102.714 19.0332 102.777 18.8246C102.84 18.6159 102.859 18.3961 102.83 18.1799V12.9999H105.83L105.79 22.1799ZM107.24 12.9999H110.14V14.7699H110.2C110.359 14.2034 110.702 13.7056 111.174 13.3546C111.646 13.0036 112.222 12.819 112.81 12.8299C113.409 12.782 114.003 12.9611 114.476 13.3317C114.948 13.7023 115.264 14.2371 115.36 14.8299H115.42C115.601 14.2308 115.977 13.7092 116.488 13.3471C116.998 12.985 117.615 12.803 118.24 12.8299C118.648 12.8162 119.054 12.8885 119.432 13.0421C119.811 13.1956 120.152 13.4271 120.435 13.7213C120.718 14.0156 120.936 14.3661 121.075 14.75C121.213 15.1339 121.27 15.5428 121.24 15.9499V22.1999H118.24V16.7499C118.24 15.7499 117.79 15.2899 116.95 15.2899C116.763 15.2883 116.577 15.3269 116.406 15.4031C116.235 15.4793 116.082 15.5913 115.958 15.7316C115.834 15.8719 115.741 16.0371 115.686 16.2162C115.631 16.3954 115.616 16.5842 115.64 16.7699V22.1999H112.79V16.7099C112.79 15.7899 112.34 15.2899 111.52 15.2899C111.331 15.29 111.143 15.3302 110.971 15.4079C110.798 15.4857 110.643 15.5992 110.518 15.7409C110.392 15.8826 110.298 16.0494 110.241 16.2303C110.185 16.4111 110.167 16.6018 110.19 16.7899V22.1999H107.19L107.24 12.9999Z" fill="#B4B7C9"/>
<path d="M28.48 10.62C27.9711 9.45637 27.2976 8.37194 26.48 7.40001C25.2715 5.92035 23.7633 4.7134 22.0547 3.85861C20.3461 3.00383 18.4758 2.52058 16.567 2.44067C14.6582 2.36076 12.7541 2.686 10.98 3.395C9.20597 4.10399 7.60217 5.18066 6.2742 6.55414C4.94622 7.92761 3.92417 9.56676 3.27532 11.3637C2.62647 13.1606 2.36552 15.0746 2.50966 16.9796C2.65381 18.8847 3.19976 20.7376 4.1116 22.4164C5.02344 24.0953 6.28049 25.562 7.80001 26.72C8.77501 27.4779 9.85236 28.094 11 28.55C12.609 29.2094 14.3311 29.549 16.07 29.55C19.6594 29.5421 23.0992 28.1113 25.6355 25.5713C28.1717 23.0313 29.5974 19.5894 29.6 16C29.6026 14.1485 29.2213 12.3166 28.48 10.62ZM16.06 5.19C17.6216 5.18984 19.1643 5.53114 20.58 6.19C20.2348 6.33917 19.8718 6.44336 19.5 6.50001C18.2766 6.6771 17.1433 7.24508 16.2692 8.11918C15.3951 8.99327 14.8271 10.1266 14.65 11.35C14.5723 12.0361 14.2602 12.6744 13.7665 13.1572C13.2728 13.64 12.6277 13.9376 11.94 14C10.7166 14.1771 9.58327 14.7451 8.70918 15.6192C7.83509 16.4933 7.2671 17.6266 7.09001 18.85C7.03005 19.5024 6.7517 20.1155 6.30001 20.59C5.52066 18.9433 5.17056 17.1261 5.28228 15.3077C5.394 13.4893 5.96391 11.7287 6.93898 10.1897C7.91404 8.6508 9.26258 7.38352 10.8591 6.50585C12.4556 5.62818 14.2482 5.16865 16.07 5.17L16.06 5.19ZM7.79001 23C7.91001 22.89 8.03001 22.79 8.15001 22.67C9.03966 21.8075 9.61072 20.6689 9.77001 19.44C9.83459 18.7492 10.143 18.104 10.64 17.62C11.1183 17.1222 11.762 16.8163 12.45 16.76C13.6734 16.5829 14.8067 16.0149 15.6808 15.1408C16.5549 14.2667 17.1229 13.1334 17.3 11.91C17.3433 11.1875 17.6533 10.5068 18.17 10C18.6601 9.51186 19.3099 9.21711 20 9.17C21.1239 9.01537 22.1721 8.51572 23 7.74001C23.9427 8.52208 24.7413 9.4629 25.36 10.52C25.322 10.5713 25.2784 10.6183 25.23 10.66C24.7527 11.1622 24.1098 11.4748 23.42 11.54C22.1953 11.714 21.0603 12.281 20.1856 13.1556C19.311 14.0303 18.744 15.1653 18.57 16.39C18.4995 17.0784 18.1932 17.7213 17.703 18.2097C17.2127 18.6982 16.5687 19.0021 15.88 19.07C14.653 19.2457 13.5155 19.8126 12.6363 20.6863C11.7572 21.5601 11.1833 22.6941 11 23.92C10.9462 24.4087 10.7783 24.878 10.51 25.29C9.484 24.6808 8.5651 23.9072 7.79001 23ZM16.06 26.86C15.0453 26.8611 14.0354 26.7197 13.06 26.44C13.3937 25.818 13.6106 25.1401 13.7 24.44C13.7701 23.7531 14.075 23.1114 14.5632 22.6232C15.0514 22.135 15.6931 21.8301 16.38 21.76C17.6052 21.5849 18.7408 21.0178 19.6169 20.1435C20.4929 19.2693 21.0624 18.1348 21.24 16.91C21.3101 16.2231 21.615 15.5814 22.1032 15.0932C22.5914 14.605 23.2331 14.3001 23.92 14.23C24.842 14.1101 25.7208 13.7668 26.48 13.23C26.9016 14.8279 26.9515 16.5011 26.626 18.1213C26.3005 19.7415 25.6081 21.2657 24.6021 22.5768C23.5961 23.8878 22.3032 24.9511 20.8224 25.6849C19.3417 26.4187 17.7126 26.8036 16.06 26.81V26.86Z" fill="#B4B7C9"/>
</svg>
