<svg width="97" height="28" viewBox="0 0 97 28" fill="none" xmlns="http://www.w3.org/2000/svg">
<g clip-path="url(#clip0_1_409)">
<path d="M25.22 0H29.682V28H25.22V0Z" fill="white"/>
<path d="M45.202 19.127C45.202 23.465 41.71 23.8594 40.546 23.8594C37.83 23.8594 37.442 21.296 37.442 19.9157V9.07068H32.98V19.7186C32.98 22.2819 33.756 24.6481 35.308 26.0284C36.666 27.4087 38.412 28.0003 40.546 28.0003C42.098 28.0003 44.038 27.6059 45.202 26.4228V28.0003H49.664V9.07068H45.202V19.127Z" fill="white"/>
<path d="M58.3939 2.16931H53.9319V9.07072H50.6339V13.4087H53.9319V28.0003H58.3939V13.4087H61.6919V9.07072H58.3939V2.16931Z" fill="white"/>
<path d="M75.66 22.281C74.69 23.0698 73.332 23.6613 71.974 23.6613C68.87 23.6613 66.736 21.2951 66.736 18.1402C66.736 14.9853 68.87 12.8163 71.974 12.8163C73.332 12.8163 74.69 13.2106 75.66 14.1965L76.242 14.7881L79.346 11.8303L78.57 11.2388C76.824 9.66133 74.496 8.67542 71.974 8.67542C66.542 8.67542 62.468 12.8163 62.468 18.3374C62.468 23.8585 66.542 27.9993 71.974 27.9993C74.496 27.9993 76.824 27.0134 78.57 25.436L79.346 24.8444L76.242 21.6895L75.66 22.281Z" fill="white"/>
<path d="M95.06 10.6479C93.702 9.26761 92.344 8.67606 90.21 8.67606C88.658 8.67606 87.106 9.07042 85.942 10.2535V0H81.48V28H85.942V17.5493C85.942 13.2113 88.852 12.8169 90.016 12.8169C92.732 12.8169 92.538 15.3803 92.538 16.7606V27.8028H97V16.9578C97 14.3944 96.418 12.0282 95.06 10.6479Z" fill="white"/>
<path d="M71.7801 21.4927C73.4944 21.4927 74.8841 20.0802 74.8841 18.3378C74.8841 16.5954 73.4944 15.1829 71.7801 15.1829C70.0658 15.1829 68.6761 16.5954 68.6761 18.3378C68.6761 20.0802 70.0658 21.4927 71.7801 21.4927Z" fill="#EF4444"/>
<path d="M19.012 21.0985C17.46 22.676 15.132 23.6619 12.61 23.6619C7.76 23.6619 4.268 19.7183 4.268 14.3943C4.268 9.07038 7.76 5.12672 12.804 5.12672C15.132 5.12672 17.46 6.11263 19.206 7.88728L19.788 8.47883L22.698 5.52108L22.116 4.92953C19.594 2.36615 16.296 0.985868 12.804 0.985868C5.432 0.788685 0 6.70418 0 14.3943C0 22.0845 5.432 28 12.61 28C16.102 28 19.594 26.6197 21.922 24.0563L22.504 23.4647L19.594 20.507L19.012 21.0985Z" fill="white"/>
</g>
<defs>
<clipPath id="clip0_1_409">
<rect width="97" height="28" fill="white"/>
</clipPath>
</defs>
</svg>
